<svg xmlns="http://www.w3.org/2000/svg" viewBox="0 0 800 600" width="800" height="600">
  <defs>
    <linearGradient id="bg" x1="0%" y1="0%" x2="100%" y2="100%">
      <stop offset="0%" stop-color="#0f172a" />
      <stop offset="100%" stop-color="#1e293b" />
    </linearGradient>
    <linearGradient id="bgAlt" x1="0%" y1="0%" x2="100%" y2="100%">
      <stop offset="0%" stop-color="#1e293b" />
      <stop offset="100%" stop-color="#334155" />
    </linearGradient>
    <linearGradient id="accent1" x1="0%" y1="0%" x2="100%" y2="100%">
      <stop offset="0%" stop-color="#38bdf8" />
      <stop offset="100%" stop-color="#0284c7" />
    </linearGradient>
    <linearGradient id="accent2" x1="0%" y1="0%" x2="100%" y2="100%">
      <stop offset="0%" stop-color="#818cf8" />
      <stop offset="100%" stop-color="#4f46e5" />
    </linearGradient>
    <linearGradient id="accent3" x1="0%" y1="0%" x2="100%" y2="100%">
      <stop offset="0%" stop-color="#c084fc" />
      <stop offset="100%" stop-color="#9333ea" />
    </linearGradient>
    <linearGradient id="accent4" x1="0%" y1="0%" x2="100%" y2="100%">
      <stop offset="0%" stop-color="#34d399" />
      <stop offset="100%" stop-color="#059669" />
    </linearGradient>
    <linearGradient id="accent5" x1="0%" y1="0%" x2="100%" y2="100%">
      <stop offset="0%" stop-color="#fbbf24" />
      <stop offset="100%" stop-color="#d97706" />
    </linearGradient>
    <filter id="glow" x="-20%" y="-20%" width="140%" height="140%">
      <feGaussianBlur stdDeviation="15" result="blur" />
      <feComposite in="SourceGraphic" in2="blur" operator="over" />
    </filter>
    <filter id="glow-strong" x="-50%" y="-50%" width="200%" height="200%">
      <feGaussianBlur stdDeviation="35" result="blur" />
      <feComposite in="SourceGraphic" in2="blur" operator="over" />
    </filter>
  </defs>
<rect width="800" height="600" fill="url(#bg)" />
  <g transform="translate(200, 480)">
    <rect x="0" y="-120" width="65" height="120" rx="12" fill="rgba(255,255,255,0.1)"/>
    <rect x="85" y="-200" width="65" height="200" rx="12" fill="rgba(255,255,255,0.15)"/>
    <rect x="170" y="-300" width="65" height="300" rx="12" fill="url(#accent1)" filter="url(#glow)"/>
    <rect x="255" y="-220" width="65" height="220" rx="12" fill="rgba(255,255,255,0.1)"/>
    <rect x="340" y="-400" width="65" height="400" rx="12" fill="url(#accent2)" filter="url(#glow)"/>
    
    <path d="M-20,-90 L75,-170 L160,-270 L245,-190 L330,-370 L420,-420" fill="none" stroke="url(#accent4)" stroke-width="10" stroke-linecap="round" stroke-linejoin="round" filter="url(#glow)"/>
    <circle cx="420" cy="-420" r="14" fill="#fff" filter="url(#glow)"/>
  </g>
</svg>